# Blender 4.3.2
# www.blender.org
mtllib Divan.mtl
o Cube.001
v -0.107622 -0.268223 -0.656780
v -0.107622 -0.268223 0.656780
v -0.294246 -0.052788 0.656780
v -0.294246 -0.052788 -0.656780
v -0.107622 -0.052788 -0.861774
v -0.107622 -0.052788 0.861774
v 0.283246 -0.257223 -0.861774
v 0.283246 -0.268223 -0.850774
v 0.294246 -0.257223 -0.850774
v 0.283246 0.257223 -0.861774
v 0.294246 0.257223 -0.850774
v 0.283246 0.268223 -0.850774
v 0.294246 -0.257223 0.850774
v 0.283246 -0.268223 0.850774
v 0.283246 -0.257223 0.861774
v 0.294246 0.257223 0.850774
v 0.283246 0.257223 0.861774
v 0.283246 0.268223 0.850774
v -0.294246 -0.257223 -0.850774
v -0.283246 -0.268223 -0.850774
v -0.283246 -0.257223 -0.861774
v -0.283246 0.268223 -0.850774
v -0.294246 0.257223 -0.850774
v -0.283246 0.257223 -0.861774
v -0.294246 -0.257223 0.850774
v -0.283246 -0.257223 0.861774
v -0.283246 -0.268223 0.850774
v -0.294246 0.257223 0.850774
v -0.283246 0.268223 0.850774
v -0.283246 0.257223 0.861774
v -0.283246 0.268223 -0.656780
v -0.294246 0.257223 -0.656780
v -0.294246 0.257223 0.656780
v -0.283246 0.268223 0.656780
v 0.283246 -0.268223 -0.656780
v 0.294246 -0.257223 -0.656780
v 0.294246 -0.257223 0.656780
v 0.283246 -0.268223 0.656780
v -0.283246 -0.268223 0.656780
v -0.294246 -0.257223 0.656780
v -0.294246 -0.257223 -0.656780
v -0.283246 -0.268223 -0.656780
v 0.283246 0.268223 0.667780
v 0.283246 0.257223 0.656780
v 0.294246 0.257223 0.667780
v 0.283246 0.268223 -0.667780
v 0.294246 0.257223 -0.667780
v 0.283246 0.257223 -0.656780
v -0.107622 0.257223 -0.861774
v -0.107622 0.268223 -0.850774
v -0.107622 -0.257223 0.861774
v -0.107622 -0.268223 0.850774
v -0.107622 0.257223 0.861774
v -0.107622 0.268223 0.850774
v -0.107622 -0.257223 -0.861774
v -0.107622 -0.268223 -0.850774
v -0.096979 0.257223 -0.656780
v -0.107985 0.257229 -0.645780
v -0.118622 0.268223 -0.667780
v -0.096979 0.257223 0.656780
v -0.118622 0.268223 0.667780
v -0.107985 0.257229 0.645780
v 0.283246 -0.052788 -0.861774
v 0.294246 -0.052788 -0.850774
v -0.294246 -0.052788 0.850774
v -0.283246 -0.052788 0.861774
v 0.294246 -0.052788 0.850774
v 0.283246 -0.052788 0.861774
v -0.294246 -0.052788 -0.850774
v -0.283246 -0.052788 -0.861774
v 0.283246 -0.041788 -0.656780
v 0.294246 -0.063788 -0.667780
v 0.283246 -0.052788 -0.645780
v 0.283246 -0.041788 0.656780
v 0.283246 -0.052788 0.645780
v 0.294246 -0.063788 0.667780
v -0.117859 -0.041794 -0.645780
v -0.106852 -0.041788 -0.656780
v -0.107222 -0.052788 -0.645780
v -0.117859 -0.041794 0.645780
v -0.107222 -0.052788 0.645780
v -0.106852 -0.041788 0.656780
vn 1.0000 -0.0000 -0.0000
vn -0.0000 1.0000 -0.0000
vn -0.0000 -0.0000 1.0000
vn -1.0000 -0.0000 -0.0000
vn -0.0000 -1.0000 -0.0000
vn -0.0000 -0.0000 -1.0000
vn -0.9995 0.0330 -0.0000
vn -0.0000 -0.0001 1.0000
vn 0.0001 1.0000 -0.0000
vn -1.0000 -0.0000 -0.0001
vn 0.0001 -0.0000 1.0000
vn -1.0000 0.0001 -0.0000
vn -0.0000 -1.0000 -0.0001
vn -1.0000 -0.0001 -0.0000
vn -0.0000 1.0000 0.0001
vn 0.0001 -0.0000 -1.0000
vn -1.0000 -0.0000 0.0001
vn -0.0000 0.0001 -1.0000
vn 0.0001 -1.0000 -0.0000
vn 1.0000 -0.0001 -0.0000
vn -0.0000 1.0000 -0.0001
vn -0.0001 -0.0000 1.0000
vn -0.0001 -1.0000 -0.0000
vn 1.0000 -0.0000 -0.0001
vn -0.0000 0.0001 1.0000
vn 1.0000 -0.0000 0.0001
vn -0.0000 -0.0001 -1.0000
vn -0.0001 1.0000 -0.0000
vn 1.0000 0.0001 -0.0000
vn -0.0000 -1.0000 0.0001
vn -0.0001 -0.0000 -1.0000
vn 0.0001 0.0001 -1.0000
vn -0.9995 0.0331 -0.0000
vn 0.0001 0.0001 1.0000
vn -0.9995 0.0331 -0.0001
vn -0.9995 0.0331 0.0001
vn 0.0001 -1.0000 -0.0001
vt 0.953758 0.000000
vt 0.953758 0.131426
vt 0.895604 0.131426
vt 0.895604 0.000000
vt 0.079117 0.086905
vt 0.004663 0.086905
vt 0.004663 0.004663
vt 0.079117 0.004663
vt 0.169817 0.735341
vt 0.169817 0.866767
vt 0.117170 0.866767
vt 0.117170 0.735341
vt 0.079117 0.726015
vt 0.004663 0.726015
vt 0.004663 0.643773
vt 0.079117 0.643773
vt 0.911297 0.571054
vt 0.911297 0.706922
vt 0.851852 0.699424
vt 0.851852 0.568212
vt 0.000000 0.866767
vt 0.000000 0.735341
vt 0.117170 0.953435
vt 0.000000 0.953435
vt 0.244821 0.086905
vt 0.244821 0.004663
vt 0.725713 0.556868
vt 0.725713 0.009327
vt 0.890746 0.009327
vt 0.890746 0.556868
vt 0.235654 0.866767
vt 0.235654 0.953435
vt 0.183007 0.953435
vt 0.183007 0.866767
vt 0.352825 0.730678
vt 0.466805 0.730678
vt 0.469765 0.857440
vt 0.352825 0.857440
vt 0.169817 0.953435
vt 0.584882 0.952595
vt 0.498214 0.952595
vt 0.498214 0.558830
vt 0.584882 0.558830
vt 0.638923 0.066001
vt 0.720701 0.073488
vt 0.720701 0.500677
vt 0.638923 0.500344
vt 0.634273 0.006266
vt 0.720701 0.010398
vt 0.244821 0.643773
vt 0.953758 0.218093
vt 0.895604 0.218093
vt 0.498214 0.500677
vt 0.584882 0.500677
vt 0.235654 0.735341
vt 0.183007 0.735341
vt 0.914870 0.788964
vt 0.851852 0.785951
vt 0.352825 0.866767
vt 0.352825 0.953435
vt 0.424348 0.082242
vt 0.254496 0.082242
vt 0.254496 0.004663
vt 0.419698 0.004663
vt 0.716307 0.558830
vt 0.716307 0.500677
vt 0.493927 0.643773
vt 0.424348 0.648436
vt 0.493927 0.086905
vt 0.493927 0.004663
vt 0.419698 0.726015
vt 0.254496 0.726015
vt 0.254496 0.648436
vt 0.503211 0.000000
vt 0.503211 0.059513
vt 0.352825 0.735341
vt 0.493927 0.726015
vt 0.716307 0.952595
vt 0.851852 1.000000
vt 0.725652 0.992766
vt 0.720701 0.572760
vt 0.846901 0.579995
vt 0.968792 0.788964
vt 0.968792 0.915726
vt 0.851852 0.915726
vt 0.854812 0.788964
vt 0.902174 0.440659
vt 0.898601 0.445143
vt 0.895604 0.440691
vt 0.902174 0.222920
vt 0.895604 0.222953
vt 0.898601 0.218093
vt 0.908743 0.440691
vt 0.905747 0.445143
vt 0.902174 0.440659
vt 0.908743 0.222953
vt 0.902174 0.222920
vt 0.905747 0.218093
vt 0.176412 0.953435
vt 0.173115 0.958098
vt 0.173115 0.730678
vt 0.176412 0.735341
vt 0.179710 0.958098
vt 0.179710 0.730678
vt 0.914293 0.566195
vt 0.917866 0.571021
vt 0.498214 0.062273
vt 0.502864 0.066073
vt 0.414838 0.643773
vt 0.419490 0.639110
vt 0.414838 0.086905
vt 0.419490 0.091568
vt 0.629276 0.072117
vt 0.633926 0.075916
vt 0.917866 0.697577
vt 0.921440 0.702404
vt 0.847168 0.573429
vt 0.851852 0.577274
vt 0.476335 0.857189
vt 0.473335 0.861977
vt 0.469764 0.857080
vt 0.498214 0.004663
vt 0.498214 0.086905
vt 0.493565 0.730678
vt 0.419336 0.730678
vt 0.895604 0.354165
vt 0.902174 0.354132
vt 0.176412 0.866767
vt 0.902174 0.354132
vt 0.908743 0.354165
vt 0.004663 0.000000
vt 0.079117 0.000000
vt 0.249484 0.004663
vt 0.249484 0.086905
vt 0.254134 0.000000
vt 0.419336 0.000000
vt 0.000000 0.726015
vt 0.000000 0.643773
vt 0.244821 0.726015
vt 0.244821 0.730678
vt 0.079117 0.730678
vt 0.249484 0.726015
vt 0.249484 0.648436
vt 0.498214 0.643773
vt 0.498214 0.726015
vt 0.249484 0.643773
vt 0.249484 0.726015
vt 0.000000 0.086905
vt 0.000000 0.004663
vt 0.249484 0.082242
vt 0.249484 0.004663
vt 0.895604 0.009327
vt 0.895604 0.556868
vt 0.254134 0.730678
vt 0.244821 0.000000
vt 0.493565 0.000000
vt 0.004663 0.730678
vt 0.254134 0.643773
vt 0.254134 0.086905
vt 0.720701 0.566195
vt 0.720701 0.000000
vt 0.890953 0.561531
vt 0.726075 0.561531
vt 0.726075 0.004663
vt 0.890953 0.004663
vt 0.720973 0.566195
vt 0.469764 0.730678
vt 0.476335 0.730782
s 1
usemtl Divan
f 28/1/1 65/2/1 3/3/1 33/4/1
f 2/5/2 39/6/2 27/7/2 52/8/2
f 24/9/3 70/10/3 5/11/3 49/12/3
f 56/13/2 20/14/2 42/15/2 1/16/2
f 45/17/4 76/18/4 67/19/4 16/20/4
f 49/12/3 5/11/3 63/21/3 10/22/3
f 5/11/3 55/23/3 7/24/3 63/21/3
f 1/16/2 42/15/2 39/6/2 2/5/2
f 38/25/2 2/5/2 52/8/2 14/26/2
f 73/27/5 75/28/5 81/29/5 79/30/5
f 6/31/6 51/32/6 26/33/6 66/34/6
f 44/35/3 60/36/3 82/37/3 74/38/3
f 70/10/3 21/39/3 55/23/3 5/11/3
f 3/40/1 40/41/1 41/42/1 4/43/1
f 72/44/4 36/45/4 37/46/4 76/47/4
f 64/48/4 9/49/4 36/45/4 72/44/4
f 35/50/2 1/16/2 2/5/2 38/25/2
f 65/2/1 25/51/1 40/52/1 3/3/1
f 4/43/1 41/42/1 19/53/1 69/54/1
f 53/55/6 6/31/6 66/34/6 30/56/6
f 76/18/4 37/57/4 13/58/4 67/19/4
f 68/59/6 15/60/6 51/32/6 6/31/6
f 61/61/5 43/62/5 18/63/5 54/64/5
f 32/65/1 4/43/1 69/54/1 23/66/1
f 31/67/5 59/68/5 61/61/5 34/69/5
f 34/69/5 61/61/5 54/64/5 29/70/5
f 50/71/5 12/72/5 46/73/5 59/68/5
f 11/74/4 64/48/4 72/44/4 47/75/4
f 17/76/6 68/59/6 6/31/6 53/55/6
f 22/77/5 50/71/5 59/68/5 31/67/5
f 33/78/1 3/40/1 4/43/1 32/65/1
f 80/79/7 62/80/7 58/81/7 77/82/7
f 48/83/6 71/84/6 78/85/6 57/86/6
f 7/87/8 8/88/9 9/89/10
f 10/90/11 11/91/12 12/92/13
f 13/93/14 14/94/15 15/95/16
f 16/96/17 17/97/18 18/98/19
f 19/99/20 20/100/21 21/39/22
f 22/101/23 23/102/24 24/9/25
f 25/99/26 26/33/27 27/103/28
f 28/102/29 29/104/30 30/56/31
f 43/105/13 44/106/11 45/17/12
f 46/107/19 47/75/17 48/108/18
f 57/109/32 58/110/33 59/68/30
f 60/111/34 61/61/19 62/112/35
f 71/113/18 72/44/4 73/114/30
f 74/115/25 75/116/13 76/18/4
f 77/82/36 78/117/32 79/118/19
f 80/119/33 81/120/37 82/121/34
f 34/69/23 29/70/30 28/122/29 33/123/29
f 50/71/13 22/77/23 24/124/25 49/125/25
f 64/126/10 11/91/12 10/90/11 63/127/11
f 66/34/31 26/33/27 25/99/26 65/128/26
f 68/129/16 17/97/18 16/96/17 67/130/17
f 70/10/22 24/9/25 23/102/24 69/128/24
f 52/8/15 27/7/28 26/131/27 51/132/27
f 38/25/9 14/26/15 13/133/14 37/134/14
f 54/64/30 18/63/19 17/135/18 53/136/18
f 42/15/28 20/14/21 19/137/20 41/138/20
f 56/13/21 8/139/9 7/140/8 55/141/8
f 46/73/19 12/72/13 11/142/12 47/143/17
f 22/77/23 31/67/23 32/144/29 23/145/24
f 31/67/23 34/69/23 33/123/29 32/144/29
f 8/139/9 35/50/9 36/146/14 9/147/10
f 35/50/9 38/25/9 37/134/14 36/146/14
f 27/7/28 39/6/28 40/148/20 25/149/26
f 39/6/28 42/15/28 41/138/20 40/148/20
f 18/63/19 43/62/13 45/150/12 16/151/17
f 79/30/19 81/29/37 80/152/33 77/153/36
f 71/113/18 48/108/18 47/75/17 72/44/4
f 76/18/4 45/17/12 44/106/11 74/115/25
f 12/72/13 50/71/13 49/125/25 10/154/11
f 14/26/15 52/8/15 51/132/27 15/155/16
f 29/70/30 54/64/30 53/136/18 30/156/31
f 20/14/21 56/13/21 55/141/8 21/157/22
f 48/158/18 57/109/32 59/68/30 46/73/19
f 43/62/13 61/61/19 60/111/34 44/159/11
f 58/110/33 62/112/35 61/61/19 59/68/30
f 9/89/10 64/126/10 63/127/11 7/87/8
f 30/56/31 66/34/31 65/128/26 28/102/29
f 15/95/16 68/129/16 67/130/17 13/93/14
f 21/39/22 70/10/22 69/128/24 19/99/20
f 72/160/4 76/161/4 75/28/13 73/27/30
f 78/162/32 71/163/18 73/27/30 79/30/19
f 74/164/25 82/165/34 81/29/37 75/28/13
f 77/82/36 58/81/33 57/166/32 78/117/32
f 82/121/34 60/167/34 62/168/35 80/119/33
f 8/139/2 56/13/2 1/16/2 35/50/2
