{
	"asset":{
		"generator":"Khronos glTF Blender I/O v4.3.47",
		"version":"2.0"
	},
	"scene":0,
	"scenes":[
		{
			"name":"Scene",
			"nodes":[
				0
			]
		}
	],
	"nodes":[
		{
			"mesh":0,
			"name":"Cube.005"
		}
	],
	"materials":[
		{
			"doubleSided":true,
			"name":"divan",
			"pbrMetallicRoughness":{
				"baseColorTexture":{
					"index":0
				},
				"metallicFactor":0,
				"roughnessFactor":0.5
			}
		}
	],
	"meshes":[
		{
			"name":"Cube.007",
			"primitives":[
				{
					"attributes":{
						"POSITION":0,
						"NORMAL":1,
						"TEXCOORD_0":2
					},
					"indices":3,
					"material":0
				}
			]
		}
	],
	"textures":[
		{
			"sampler":0,
			"source":0
		}
	],
	"images":[
		{
			"mimeType":"image/jpeg",
			"name":"divan",
			"uri":"divan.jpg"
		}
	],
	"accessors":[
		{
			"bufferView":0,
			"componentType":5126,
			"count":1489,
			"max":[
				0.32814857363700867,
				0.6738120913505554,
				0.9999999403953552
			],
			"min":[
				-0.34566357731819153,
				-5.960464477539063e-08,
				-1
			],
			"type":"VEC3"
		},
		{
			"bufferView":1,
			"componentType":5126,
			"count":1489,
			"type":"VEC3"
		},
		{
			"bufferView":2,
			"componentType":5126,
			"count":1489,
			"type":"VEC2"
		},
		{
			"bufferView":3,
			"componentType":5123,
			"count":6954,
			"type":"SCALAR"
		}
	],
	"bufferViews":[
		{
			"buffer":0,
			"byteLength":17868,
			"byteOffset":0,
			"target":34962
		},
		{
			"buffer":0,
			"byteLength":17868,
			"byteOffset":17868,
			"target":34962
		},
		{
			"buffer":0,
			"byteLength":11912,
			"byteOffset":35736,
			"target":34962
		},
		{
			"buffer":0,
			"byteLength":13908,
			"byteOffset":47648,
			"target":34963
		}
	],
	"samplers":[
		{
			"magFilter":9729,
			"minFilter":9987
		}
	],
	"buffers":[
		{
			"byteLength":61556,
			"uri":"divan.bin"
		}
	]
}
