{
	"asset":{
		"generator":"Khronos glTF Blender I/O v4.3.47",
		"version":"2.0"
	},
	"scene":0,
	"scenes":[
		{
			"name":"Scene",
			"nodes":[
				0,
				1,
				2,
				3,
				4,
				5,
				6,
				7,
				8,
				9,
				10,
				11,
				12,
				13,
				14,
				15,
				16,
				17,
				18,
				19
			]
		}
	],
	"nodes":[
		{
			"mesh":0,
			"name":"Cube",
			"scale":[
				6,
				3.2300000190734863,
				6
			]
		},
		{
			"mesh":1,
			"name":"Plane.002",
			"rotation":[
				0,
				0,
				-0.7071068286895752,
				0.7071068286895752
			],
			"scale":[
				0.7119941711425781,
				1,
				1.3091113567352295
			],
			"translation":[
				-5.962788105010986,
				3.4228157997131348,
				0
			]
		},
		{
			"mesh":2,
			"name":"Plane.003",
			"rotation":[
				0,
				0,
				-0.7071068286895752,
				0.7071068286895752
			],
			"scale":[
				0.7119941711425781,
				1,
				0.7119941711425781
			],
			"translation":[
				-5.962788105010986,
				3.4228157997131348,
				0
			]
		},
		{
			"mesh":3,
			"name":"Cube.001",
			"scale":[
				1,
				1,
				0.6030910611152649
			],
			"translation":[
				-5.647066116333008,
				1.0195858478546143,
				0
			]
		},
		{
			"mesh":4,
			"name":"Cube.002",
			"translation":[
				-6,
				3.2300000190734863,
				0
			]
		},
		{
			"mesh":5,
			"name":"Cube.003",
			"translation":[
				-5.47976541519165,
				5.600428581237793,
				2.1111879348754883
			]
		},
		{
			"mesh":6,
			"name":"Cube.004",
			"translation":[
				-6,
				3.2300000190734863,
				-4.239354610443115
			]
		},
		{
			"mesh":7,
			"name":"Cube.005",
			"translation":[
				-5.47976541519165,
				5.600428581237793,
				-2.128166675567627
			]
		},
		{
			"mesh":8,
			"name":"Cube.006",
			"scale":[
				0.389168918132782,
				1,
				1.4653422832489014
			],
			"translation":[
				-5.724184989929199,
				5.472134590148926,
				0
			]
		},
		{
			"mesh":9,
			"name":"Plane.006",
			"rotation":[
				-0.27059808373451233,
				0.27059805393218994,
				-0.6532815098762512,
				0.6532815098762512
			],
			"scale":[
				0.7119941711425781,
				1,
				1.3091113567352295
			],
			"translation":[
				-4.216327667236328,
				3.4228157997131348,
				4.216327667236328
			]
		},
		{
			"mesh":10,
			"name":"Plane.007",
			"rotation":[
				-0.27059808373451233,
				0.27059805393218994,
				-0.6532815098762512,
				0.6532815098762512
			],
			"scale":[
				0.7119941711425781,
				1,
				0.7119941115379333
			],
			"translation":[
				-4.216327667236328,
				3.4228157997131348,
				4.216327667236328
			]
		},
		{
			"mesh":11,
			"name":"Plane.008",
			"rotation":[
				0.27059808373451233,
				-0.27059805393218994,
				-0.6532814502716064,
				0.6532815098762512
			],
			"scale":[
				0.7119941711425781,
				1,
				1.3091113567352295
			],
			"translation":[
				-4.216327667236328,
				3.4228155612945557,
				-4.216327667236328
			]
		},
		{
			"mesh":12,
			"name":"Plane.009",
			"rotation":[
				0.27059808373451233,
				-0.27059805393218994,
				-0.6532814502716064,
				0.6532815098762512
			],
			"scale":[
				0.7119941711425781,
				1,
				0.7119941711425781
			],
			"translation":[
				-4.216327667236328,
				3.4228155612945557,
				-4.216327667236328
			]
		},
		{
			"mesh":13,
			"name":"Plane.010",
			"rotation":[
				0.7071068286895752,
				-0.7071068286895752,
				0,
				1.1520234011186403e-07
			],
			"scale":[
				0.7119941711425781,
				1,
				1.3091113567352295
			],
			"translation":[
				5.962788105010986,
				3.4228157997131348,
				0
			]
		},
		{
			"mesh":14,
			"name":"Plane.011",
			"rotation":[
				0.7071068286895752,
				-0.7071068286895752,
				0,
				1.1520234011186403e-07
			],
			"scale":[
				0.7119941711425781,
				1,
				0.7119941711425781
			],
			"translation":[
				5.962788105010986,
				3.4228157997131348,
				0
			]
		},
		{
			"mesh":15,
			"name":"Circle.002",
			"translation":[
				0,
				1.188914179801941,
				0
			]
		},
		{
			"mesh":16,
			"name":"Cylinder.001",
			"scale":[
				0.12126654386520386,
				0.12126654386520386,
				0.12126654386520386
			],
			"translation":[
				0,
				1.1385241746902466,
				0
			]
		},
		{
			"mesh":17,
			"name":"Circle.003",
			"scale":[
				1.0937249660491943,
				1.0937249660491943,
				1.0937249660491943
			],
			"translation":[
				0,
				1.2515252828598022,
				0
			]
		},
		{
			"mesh":18,
			"name":"Plane.005",
			"rotation":[
				0,
				0.7071068286895752,
				0,
				0.7071068286895752
			],
			"translation":[
				-0.15915225446224213,
				0.2904053032398224,
				0
			]
		},
		{
			"mesh":19,
			"name":"Plane.004",
			"rotation":[
				0,
				-1,
				0,
				1.6292068494294654e-07
			],
			"translation":[
				0,
				0.29040536284446716,
				0.15915225446224213
			]
		}
	],
	"meshes":[
		{
			"name":"Cube.003",
			"primitives":[
				{
					"attributes":{
						"POSITION":0,
						"NORMAL":1,
						"TEXCOORD_0":2
					},
					"indices":3
				}
			]
		},
		{
			"name":"Plane.002",
			"primitives":[
				{
					"attributes":{
						"POSITION":4,
						"NORMAL":5,
						"TEXCOORD_0":6
					},
					"indices":7
				}
			]
		},
		{
			"name":"Plane.003",
			"primitives":[
				{
					"attributes":{
						"POSITION":8,
						"NORMAL":9,
						"TEXCOORD_0":10
					},
					"indices":11
				}
			]
		},
		{
			"name":"Cube.004",
			"primitives":[
				{
					"attributes":{
						"POSITION":12,
						"NORMAL":13,
						"TEXCOORD_0":14
					},
					"indices":15
				}
			]
		},
		{
			"name":"Cube",
			"primitives":[
				{
					"attributes":{
						"POSITION":16,
						"NORMAL":17,
						"TEXCOORD_0":18
					},
					"indices":19
				}
			]
		},
		{
			"name":"Cube.001",
			"primitives":[
				{
					"attributes":{
						"POSITION":20,
						"NORMAL":21,
						"TEXCOORD_0":22
					},
					"indices":23
				}
			]
		},
		{
			"name":"Cube.005",
			"primitives":[
				{
					"attributes":{
						"POSITION":24,
						"NORMAL":25,
						"TEXCOORD_0":26
					},
					"indices":19
				}
			]
		},
		{
			"name":"Cube.006",
			"primitives":[
				{
					"attributes":{
						"POSITION":27,
						"NORMAL":28,
						"TEXCOORD_0":29
					},
					"indices":23
				}
			]
		},
		{
			"name":"Cube.007",
			"primitives":[
				{
					"attributes":{
						"POSITION":30,
						"NORMAL":31,
						"TEXCOORD_0":32
					},
					"indices":33
				}
			]
		},
		{
			"name":"Plane.008",
			"primitives":[
				{
					"attributes":{
						"POSITION":34,
						"NORMAL":35,
						"TEXCOORD_0":36
					},
					"indices":7
				}
			]
		},
		{
			"name":"Plane.004",
			"primitives":[
				{
					"attributes":{
						"POSITION":37,
						"NORMAL":38,
						"TEXCOORD_0":39
					},
					"indices":11
				}
			]
		},
		{
			"name":"Plane.009",
			"primitives":[
				{
					"attributes":{
						"POSITION":40,
						"NORMAL":41,
						"TEXCOORD_0":42
					},
					"indices":7
				}
			]
		},
		{
			"name":"Plane.005",
			"primitives":[
				{
					"attributes":{
						"POSITION":43,
						"NORMAL":44,
						"TEXCOORD_0":45
					},
					"indices":11
				}
			]
		},
		{
			"name":"Plane.010",
			"primitives":[
				{
					"attributes":{
						"POSITION":46,
						"NORMAL":47,
						"TEXCOORD_0":48
					},
					"indices":7
				}
			]
		},
		{
			"name":"Plane.006",
			"primitives":[
				{
					"attributes":{
						"POSITION":49,
						"NORMAL":50,
						"TEXCOORD_0":51
					},
					"indices":11
				}
			]
		},
		{
			"name":"Circle.002",
			"primitives":[
				{
					"attributes":{
						"POSITION":52,
						"NORMAL":53,
						"TEXCOORD_0":54
					},
					"indices":55
				}
			]
		},
		{
			"name":"Cylinder.001",
			"primitives":[
				{
					"attributes":{
						"POSITION":56,
						"NORMAL":57,
						"TEXCOORD_0":58
					},
					"indices":59
				}
			]
		},
		{
			"name":"Circle.003",
			"primitives":[
				{
					"attributes":{
						"POSITION":60,
						"NORMAL":61,
						"TEXCOORD_0":62
					},
					"indices":63
				}
			]
		},
		{
			"name":"Plane.006",
			"primitives":[
				{
					"attributes":{
						"POSITION":64,
						"NORMAL":65,
						"TEXCOORD_0":66
					},
					"indices":67
				}
			]
		},
		{
			"name":"Plane.007",
			"primitives":[
				{
					"attributes":{
						"POSITION":68,
						"NORMAL":69,
						"TEXCOORD_0":70
					},
					"indices":71
				}
			]
		}
	],
	"accessors":[
		{
			"bufferView":0,
			"componentType":5126,
			"count":40,
			"max":[
				1,
				2,
				1
			],
			"min":[
				-1,
				0,
				-1
			],
			"type":"VEC3"
		},
		{
			"bufferView":1,
			"componentType":5126,
			"count":40,
			"type":"VEC3"
		},
		{
			"bufferView":2,
			"componentType":5126,
			"count":40,
			"type":"VEC2"
		},
		{
			"bufferView":3,
			"componentType":5123,
			"count":66,
			"type":"SCALAR"
		},
		{
			"bufferView":4,
			"componentType":5126,
			"count":4,
			"max":[
				1,
				0,
				1
			],
			"min":[
				-1,
				0,
				-1
			],
			"type":"VEC3"
		},
		{
			"bufferView":5,
			"componentType":5126,
			"count":4,
			"type":"VEC3"
		},
		{
			"bufferView":6,
			"componentType":5126,
			"count":4,
			"type":"VEC2"
		},
		{
			"bufferView":7,
			"componentType":5123,
			"count":6,
			"type":"SCALAR"
		},
		{
			"bufferView":8,
			"componentType":5126,
			"count":52,
			"max":[
				1.0649529695510864,
				0.09185730665922165,
				1.9036076068878174
			],
			"min":[
				-1.0649528503417969,
				-0.09185728430747986,
				-1.9036074876785278
			],
			"type":"VEC3"
		},
		{
			"bufferView":9,
			"componentType":5126,
			"count":52,
			"type":"VEC3"
		},
		{
			"bufferView":10,
			"componentType":5126,
			"count":52,
			"type":"VEC2"
		},
		{
			"bufferView":11,
			"componentType":5123,
			"count":96,
			"type":"SCALAR"
		},
		{
			"bufferView":12,
			"componentType":5126,
			"count":118,
			"max":[
				0.4125639796257019,
				1,
				2.5172996520996094
			],
			"min":[
				-0.4125639796257019,
				-1,
				-2.5172996520996094
			],
			"type":"VEC3"
		},
		{
			"bufferView":13,
			"componentType":5126,
			"count":118,
			"type":"VEC3"
		},
		{
			"bufferView":14,
			"componentType":5126,
			"count":118,
			"type":"VEC2"
		},
		{
			"bufferView":15,
			"componentType":5123,
			"count":360,
			"type":"SCALAR"
		},
		{
			"bufferView":16,
			"componentType":5126,
			"count":48,
			"max":[
				0.7819568514823914,
				3.207404613494873,
				2.745821237564087
			],
			"min":[
				-0.1289057731628418,
				-3.245739698410034,
				1.4765546321868896
			],
			"type":"VEC3"
		},
		{
			"bufferView":17,
			"componentType":5126,
			"count":48,
			"type":"VEC3"
		},
		{
			"bufferView":18,
			"componentType":5126,
			"count":48,
			"type":"VEC2"
		},
		{
			"bufferView":19,
			"componentType":5123,
			"count":84,
			"type":"SCALAR"
		},
		{
			"bufferView":20,
			"componentType":5126,
			"count":168,
			"max":[
				0.26172226667404175,
				0.06003546714782715,
				0.4498176574707031
			],
			"min":[
				-0.26172226667404175,
				-5.571324348449707,
				-0.4498176574707031
			],
			"type":"VEC3"
		},
		{
			"bufferView":21,
			"componentType":5126,
			"count":168,
			"type":"VEC3"
		},
		{
			"bufferView":22,
			"componentType":5126,
			"count":168,
			"type":"VEC2"
		},
		{
			"bufferView":23,
			"componentType":5123,
			"count":252,
			"type":"SCALAR"
		},
		{
			"bufferView":24,
			"componentType":5126,
			"count":48,
			"max":[
				0.7819568514823914,
				3.207404613494873,
				2.745821237564087
			],
			"min":[
				-0.1289057731628418,
				-3.245739698410034,
				1.4765546321868896
			],
			"type":"VEC3"
		},
		{
			"bufferView":25,
			"componentType":5126,
			"count":48,
			"type":"VEC3"
		},
		{
			"bufferView":26,
			"componentType":5126,
			"count":48,
			"type":"VEC2"
		},
		{
			"bufferView":27,
			"componentType":5126,
			"count":168,
			"max":[
				0.26172226667404175,
				0.06003546714782715,
				0.4498176574707031
			],
			"min":[
				-0.26172226667404175,
				-5.571324348449707,
				-0.4498176574707031
			],
			"type":"VEC3"
		},
		{
			"bufferView":28,
			"componentType":5126,
			"count":168,
			"type":"VEC3"
		},
		{
			"bufferView":29,
			"componentType":5126,
			"count":168,
			"type":"VEC2"
		},
		{
			"bufferView":30,
			"componentType":5126,
			"count":58,
			"max":[
				1.212157964706421,
				0.9718893766403198,
				1.0136321783065796
			],
			"min":[
				-0.9999998807907104,
				-0.35292720794677734,
				-1.0136321783065796
			],
			"type":"VEC3"
		},
		{
			"bufferView":31,
			"componentType":5126,
			"count":58,
			"type":"VEC3"
		},
		{
			"bufferView":32,
			"componentType":5126,
			"count":58,
			"type":"VEC2"
		},
		{
			"bufferView":33,
			"componentType":5123,
			"count":108,
			"type":"SCALAR"
		},
		{
			"bufferView":34,
			"componentType":5126,
			"count":4,
			"max":[
				1,
				0,
				1
			],
			"min":[
				-1,
				0,
				-1
			],
			"type":"VEC3"
		},
		{
			"bufferView":35,
			"componentType":5126,
			"count":4,
			"type":"VEC3"
		},
		{
			"bufferView":36,
			"componentType":5126,
			"count":4,
			"type":"VEC2"
		},
		{
			"bufferView":37,
			"componentType":5126,
			"count":52,
			"max":[
				1.0649529695510864,
				0.09185730665922165,
				1.9036076068878174
			],
			"min":[
				-1.0649528503417969,
				-0.09185728430747986,
				-1.9036074876785278
			],
			"type":"VEC3"
		},
		{
			"bufferView":38,
			"componentType":5126,
			"count":52,
			"type":"VEC3"
		},
		{
			"bufferView":39,
			"componentType":5126,
			"count":52,
			"type":"VEC2"
		},
		{
			"bufferView":40,
			"componentType":5126,
			"count":4,
			"max":[
				1,
				0,
				1
			],
			"min":[
				-1,
				0,
				-1
			],
			"type":"VEC3"
		},
		{
			"bufferView":41,
			"componentType":5126,
			"count":4,
			"type":"VEC3"
		},
		{
			"bufferView":42,
			"componentType":5126,
			"count":4,
			"type":"VEC2"
		},
		{
			"bufferView":43,
			"componentType":5126,
			"count":52,
			"max":[
				1.0649529695510864,
				0.09185730665922165,
				1.9036076068878174
			],
			"min":[
				-1.0649528503417969,
				-0.09185728430747986,
				-1.9036074876785278
			],
			"type":"VEC3"
		},
		{
			"bufferView":44,
			"componentType":5126,
			"count":52,
			"type":"VEC3"
		},
		{
			"bufferView":45,
			"componentType":5126,
			"count":52,
			"type":"VEC2"
		},
		{
			"bufferView":46,
			"componentType":5126,
			"count":4,
			"max":[
				1,
				0,
				1
			],
			"min":[
				-1,
				0,
				-1
			],
			"type":"VEC3"
		},
		{
			"bufferView":47,
			"componentType":5126,
			"count":4,
			"type":"VEC3"
		},
		{
			"bufferView":48,
			"componentType":5126,
			"count":4,
			"type":"VEC2"
		},
		{
			"bufferView":49,
			"componentType":5126,
			"count":52,
			"max":[
				1.0649529695510864,
				0.09185730665922165,
				1.9036076068878174
			],
			"min":[
				-1.0649528503417969,
				-0.09185728430747986,
				-1.9036074876785278
			],
			"type":"VEC3"
		},
		{
			"bufferView":50,
			"componentType":5126,
			"count":52,
			"type":"VEC3"
		},
		{
			"bufferView":51,
			"componentType":5126,
			"count":52,
			"type":"VEC2"
		},
		{
			"bufferView":52,
			"componentType":5126,
			"count":258,
			"max":[
				1,
				-5.104878297856885e-09,
				1
			],
			"min":[
				-1,
				-0.08500019460916519,
				-1
			],
			"type":"VEC3"
		},
		{
			"bufferView":53,
			"componentType":5126,
			"count":258,
			"type":"VEC3"
		},
		{
			"bufferView":54,
			"componentType":5126,
			"count":258,
			"type":"VEC2"
		},
		{
			"bufferView":55,
			"componentType":5123,
			"count":1152,
			"type":"SCALAR"
		},
		{
			"bufferView":56,
			"componentType":5126,
			"count":2746,
			"max":[
				1.3786866664886475,
				-1.9073486328125e-06,
				1.3786866664886475
			],
			"min":[
				-1.3786866664886475,
				-8.1768159866333,
				-1.3786866664886475
			],
			"type":"VEC3"
		},
		{
			"bufferView":57,
			"componentType":5126,
			"count":2746,
			"type":"VEC3"
		},
		{
			"bufferView":58,
			"componentType":5126,
			"count":2746,
			"type":"VEC2"
		},
		{
			"bufferView":59,
			"componentType":5123,
			"count":6138,
			"type":"SCALAR"
		},
		{
			"bufferView":60,
			"componentType":5126,
			"count":930,
			"max":[
				0.9745433926582336,
				-5.033854577618513e-08,
				0.9745433926582336
			],
			"min":[
				-0.9745433926582336,
				-0.057000186294317245,
				-0.9745433926582336
			],
			"type":"VEC3"
		},
		{
			"bufferView":61,
			"componentType":5126,
			"count":930,
			"type":"VEC3"
		},
		{
			"bufferView":62,
			"componentType":5126,
			"count":930,
			"type":"VEC2"
		},
		{
			"bufferView":63,
			"componentType":5123,
			"count":4800,
			"type":"SCALAR"
		},
		{
			"bufferView":64,
			"componentType":5126,
			"count":527,
			"max":[
				0.04050849378108978,
				0.07200053334236145,
				0.9118897914886475
			],
			"min":[
				-0.03349161148071289,
				-0.2946208715438843,
				-0.5935852527618408
			],
			"type":"VEC3"
		},
		{
			"bufferView":65,
			"componentType":5126,
			"count":527,
			"type":"VEC3"
		},
		{
			"bufferView":66,
			"componentType":5126,
			"count":527,
			"type":"VEC2"
		},
		{
			"bufferView":67,
			"componentType":5123,
			"count":1368,
			"type":"SCALAR"
		},
		{
			"bufferView":68,
			"componentType":5126,
			"count":527,
			"max":[
				0.04050849378108978,
				0.07200059294700623,
				0.9118897914886475
			],
			"min":[
				-0.03349203243851662,
				-0.2946208715438843,
				-0.5935852527618408
			],
			"type":"VEC3"
		},
		{
			"bufferView":69,
			"componentType":5126,
			"count":527,
			"type":"VEC3"
		},
		{
			"bufferView":70,
			"componentType":5126,
			"count":527,
			"type":"VEC2"
		},
		{
			"bufferView":71,
			"componentType":5123,
			"count":1368,
			"type":"SCALAR"
		}
	],
	"bufferViews":[
		{
			"buffer":0,
			"byteLength":480,
			"byteOffset":0,
			"target":34962
		},
		{
			"buffer":0,
			"byteLength":480,
			"byteOffset":480,
			"target":34962
		},
		{
			"buffer":0,
			"byteLength":320,
			"byteOffset":960,
			"target":34962
		},
		{
			"buffer":0,
			"byteLength":132,
			"byteOffset":1280,
			"target":34963
		},
		{
			"buffer":0,
			"byteLength":48,
			"byteOffset":1412,
			"target":34962
		},
		{
			"buffer":0,
			"byteLength":48,
			"byteOffset":1460,
			"target":34962
		},
		{
			"buffer":0,
			"byteLength":32,
			"byteOffset":1508,
			"target":34962
		},
		{
			"buffer":0,
			"byteLength":12,
			"byteOffset":1540,
			"target":34963
		},
		{
			"buffer":0,
			"byteLength":624,
			"byteOffset":1552,
			"target":34962
		},
		{
			"buffer":0,
			"byteLength":624,
			"byteOffset":2176,
			"target":34962
		},
		{
			"buffer":0,
			"byteLength":416,
			"byteOffset":2800,
			"target":34962
		},
		{
			"buffer":0,
			"byteLength":192,
			"byteOffset":3216,
			"target":34963
		},
		{
			"buffer":0,
			"byteLength":1416,
			"byteOffset":3408,
			"target":34962
		},
		{
			"buffer":0,
			"byteLength":1416,
			"byteOffset":4824,
			"target":34962
		},
		{
			"buffer":0,
			"byteLength":944,
			"byteOffset":6240,
			"target":34962
		},
		{
			"buffer":0,
			"byteLength":720,
			"byteOffset":7184,
			"target":34963
		},
		{
			"buffer":0,
			"byteLength":576,
			"byteOffset":7904,
			"target":34962
		},
		{
			"buffer":0,
			"byteLength":576,
			"byteOffset":8480,
			"target":34962
		},
		{
			"buffer":0,
			"byteLength":384,
			"byteOffset":9056,
			"target":34962
		},
		{
			"buffer":0,
			"byteLength":168,
			"byteOffset":9440,
			"target":34963
		},
		{
			"buffer":0,
			"byteLength":2016,
			"byteOffset":9608,
			"target":34962
		},
		{
			"buffer":0,
			"byteLength":2016,
			"byteOffset":11624,
			"target":34962
		},
		{
			"buffer":0,
			"byteLength":1344,
			"byteOffset":13640,
			"target":34962
		},
		{
			"buffer":0,
			"byteLength":504,
			"byteOffset":14984,
			"target":34963
		},
		{
			"buffer":0,
			"byteLength":576,
			"byteOffset":15488,
			"target":34962
		},
		{
			"buffer":0,
			"byteLength":576,
			"byteOffset":16064,
			"target":34962
		},
		{
			"buffer":0,
			"byteLength":384,
			"byteOffset":16640,
			"target":34962
		},
		{
			"buffer":0,
			"byteLength":2016,
			"byteOffset":17024,
			"target":34962
		},
		{
			"buffer":0,
			"byteLength":2016,
			"byteOffset":19040,
			"target":34962
		},
		{
			"buffer":0,
			"byteLength":1344,
			"byteOffset":21056,
			"target":34962
		},
		{
			"buffer":0,
			"byteLength":696,
			"byteOffset":22400,
			"target":34962
		},
		{
			"buffer":0,
			"byteLength":696,
			"byteOffset":23096,
			"target":34962
		},
		{
			"buffer":0,
			"byteLength":464,
			"byteOffset":23792,
			"target":34962
		},
		{
			"buffer":0,
			"byteLength":216,
			"byteOffset":24256,
			"target":34963
		},
		{
			"buffer":0,
			"byteLength":48,
			"byteOffset":24472,
			"target":34962
		},
		{
			"buffer":0,
			"byteLength":48,
			"byteOffset":24520,
			"target":34962
		},
		{
			"buffer":0,
			"byteLength":32,
			"byteOffset":24568,
			"target":34962
		},
		{
			"buffer":0,
			"byteLength":624,
			"byteOffset":24600,
			"target":34962
		},
		{
			"buffer":0,
			"byteLength":624,
			"byteOffset":25224,
			"target":34962
		},
		{
			"buffer":0,
			"byteLength":416,
			"byteOffset":25848,
			"target":34962
		},
		{
			"buffer":0,
			"byteLength":48,
			"byteOffset":26264,
			"target":34962
		},
		{
			"buffer":0,
			"byteLength":48,
			"byteOffset":26312,
			"target":34962
		},
		{
			"buffer":0,
			"byteLength":32,
			"byteOffset":26360,
			"target":34962
		},
		{
			"buffer":0,
			"byteLength":624,
			"byteOffset":26392,
			"target":34962
		},
		{
			"buffer":0,
			"byteLength":624,
			"byteOffset":27016,
			"target":34962
		},
		{
			"buffer":0,
			"byteLength":416,
			"byteOffset":27640,
			"target":34962
		},
		{
			"buffer":0,
			"byteLength":48,
			"byteOffset":28056,
			"target":34962
		},
		{
			"buffer":0,
			"byteLength":48,
			"byteOffset":28104,
			"target":34962
		},
		{
			"buffer":0,
			"byteLength":32,
			"byteOffset":28152,
			"target":34962
		},
		{
			"buffer":0,
			"byteLength":624,
			"byteOffset":28184,
			"target":34962
		},
		{
			"buffer":0,
			"byteLength":624,
			"byteOffset":28808,
			"target":34962
		},
		{
			"buffer":0,
			"byteLength":416,
			"byteOffset":29432,
			"target":34962
		},
		{
			"buffer":0,
			"byteLength":3096,
			"byteOffset":29848,
			"target":34962
		},
		{
			"buffer":0,
			"byteLength":3096,
			"byteOffset":32944,
			"target":34962
		},
		{
			"buffer":0,
			"byteLength":2064,
			"byteOffset":36040,
			"target":34962
		},
		{
			"buffer":0,
			"byteLength":2304,
			"byteOffset":38104,
			"target":34963
		},
		{
			"buffer":0,
			"byteLength":32952,
			"byteOffset":40408,
			"target":34962
		},
		{
			"buffer":0,
			"byteLength":32952,
			"byteOffset":73360,
			"target":34962
		},
		{
			"buffer":0,
			"byteLength":21968,
			"byteOffset":106312,
			"target":34962
		},
		{
			"buffer":0,
			"byteLength":12276,
			"byteOffset":128280,
			"target":34963
		},
		{
			"buffer":0,
			"byteLength":11160,
			"byteOffset":140556,
			"target":34962
		},
		{
			"buffer":0,
			"byteLength":11160,
			"byteOffset":151716,
			"target":34962
		},
		{
			"buffer":0,
			"byteLength":7440,
			"byteOffset":162876,
			"target":34962
		},
		{
			"buffer":0,
			"byteLength":9600,
			"byteOffset":170316,
			"target":34963
		},
		{
			"buffer":0,
			"byteLength":6324,
			"byteOffset":179916,
			"target":34962
		},
		{
			"buffer":0,
			"byteLength":6324,
			"byteOffset":186240,
			"target":34962
		},
		{
			"buffer":0,
			"byteLength":4216,
			"byteOffset":192564,
			"target":34962
		},
		{
			"buffer":0,
			"byteLength":2736,
			"byteOffset":196780,
			"target":34963
		},
		{
			"buffer":0,
			"byteLength":6324,
			"byteOffset":199516,
			"target":34962
		},
		{
			"buffer":0,
			"byteLength":6324,
			"byteOffset":205840,
			"target":34962
		},
		{
			"buffer":0,
			"byteLength":4216,
			"byteOffset":212164,
			"target":34962
		},
		{
			"buffer":0,
			"byteLength":2736,
			"byteOffset":216380,
			"target":34963
		}
	],
	"buffers":[
		{
			"byteLength":219116,
			"uri":"room.bin"
		}
	]
}
