{
	"asset":{
		"generator":"Khronos glTF Blender I/O v4.3.47",
		"version":"2.0"
	},
	"scene":0,
	"scenes":[
		{
			"name":"Scene",
			"nodes":[
				0,
				1,
				2,
				3
			]
		}
	],
	"nodes":[
		{
			"mesh":0,
			"name":"cube",
			"translation":[
				-0.4858728349208832,
				0,
				0.9619136452674866
			]
		},
		{
			"mesh":1,
			"name":"room"
		},
		{
			"mesh":2,
			"name":"sphere",
			"translation":[
				0.5770896673202515,
				0.31358224153518677,
				0.04675781726837158
			]
		},
		{
			"mesh":3,
			"name":"cylinder",
			"translation":[
				-0.8885331153869629,
				0.36726707220077515,
				-1.3040831089019775
			]
		}
	],
	"meshes":[
		{
			"name":"Cube.002",
			"primitives":[
				{
					"attributes":{
						"POSITION":0,
						"NORMAL":1,
						"TEXCOORD_0":2
					},
					"indices":3
				}
			]
		},
		{
			"name":"Cube.008",
			"primitives":[
				{
					"attributes":{
						"POSITION":4,
						"NORMAL":5,
						"TEXCOORD_0":6
					},
					"indices":7
				}
			]
		},
		{
			"name":"Sphere",
			"primitives":[
				{
					"attributes":{
						"POSITION":8,
						"NORMAL":9,
						"TEXCOORD_0":10
					},
					"indices":11
				}
			]
		},
		{
			"name":"Cylinder",
			"primitives":[
				{
					"attributes":{
						"POSITION":12,
						"NORMAL":13,
						"TEXCOORD_0":14
					},
					"indices":15
				}
			]
		}
	],
	"accessors":[
		{
			"bufferView":0,
			"componentType":5126,
			"count":278,
			"max":[
				0.5,
				1,
				0.5
			],
			"min":[
				-0.5,
				0,
				-0.5
			],
			"type":"VEC3"
		},
		{
			"bufferView":1,
			"componentType":5126,
			"count":278,
			"type":"VEC3"
		},
		{
			"bufferView":2,
			"componentType":5126,
			"count":278,
			"type":"VEC2"
		},
		{
			"bufferView":3,
			"componentType":5123,
			"count":564,
			"type":"SCALAR"
		},
		{
			"bufferView":4,
			"componentType":5126,
			"count":24,
			"max":[
				1.9987144470214844,
				2,
				2.4983930587768555
			],
			"min":[
				-1.9987144470214844,
				0,
				-2.4983930587768555
			],
			"type":"VEC3"
		},
		{
			"bufferView":5,
			"componentType":5126,
			"count":24,
			"type":"VEC3"
		},
		{
			"bufferView":6,
			"componentType":5126,
			"count":24,
			"type":"VEC2"
		},
		{
			"bufferView":7,
			"componentType":5123,
			"count":36,
			"type":"SCALAR"
		},
		{
			"bufferView":8,
			"componentType":5126,
			"count":559,
			"max":[
				0.3988887071609497,
				0.39888882637023926,
				0.39888855814933777
			],
			"min":[
				-0.3988884389400482,
				-0.39888882637023926,
				-0.39888882637023926
			],
			"type":"VEC3"
		},
		{
			"bufferView":9,
			"componentType":5126,
			"count":559,
			"type":"VEC3"
		},
		{
			"bufferView":10,
			"componentType":5126,
			"count":559,
			"type":"VEC2"
		},
		{
			"bufferView":11,
			"componentType":5123,
			"count":2880,
			"type":"SCALAR"
		},
		{
			"bufferView":12,
			"componentType":5126,
			"count":130,
			"max":[
				0.4052216410636902,
				0.4052216410636902,
				0.4052216410636902
			],
			"min":[
				-0.4052216410636902,
				-0.4052216410636902,
				-0.4052216410636902
			],
			"type":"VEC3"
		},
		{
			"bufferView":13,
			"componentType":5126,
			"count":130,
			"type":"VEC3"
		},
		{
			"bufferView":14,
			"componentType":5126,
			"count":130,
			"type":"VEC2"
		},
		{
			"bufferView":15,
			"componentType":5123,
			"count":372,
			"type":"SCALAR"
		}
	],
	"bufferViews":[
		{
			"buffer":0,
			"byteLength":3336,
			"byteOffset":0,
			"target":34962
		},
		{
			"buffer":0,
			"byteLength":3336,
			"byteOffset":3336,
			"target":34962
		},
		{
			"buffer":0,
			"byteLength":2224,
			"byteOffset":6672,
			"target":34962
		},
		{
			"buffer":0,
			"byteLength":1128,
			"byteOffset":8896,
			"target":34963
		},
		{
			"buffer":0,
			"byteLength":288,
			"byteOffset":10024,
			"target":34962
		},
		{
			"buffer":0,
			"byteLength":288,
			"byteOffset":10312,
			"target":34962
		},
		{
			"buffer":0,
			"byteLength":192,
			"byteOffset":10600,
			"target":34962
		},
		{
			"buffer":0,
			"byteLength":72,
			"byteOffset":10792,
			"target":34963
		},
		{
			"buffer":0,
			"byteLength":6708,
			"byteOffset":10864,
			"target":34962
		},
		{
			"buffer":0,
			"byteLength":6708,
			"byteOffset":17572,
			"target":34962
		},
		{
			"buffer":0,
			"byteLength":4472,
			"byteOffset":24280,
			"target":34962
		},
		{
			"buffer":0,
			"byteLength":5760,
			"byteOffset":28752,
			"target":34963
		},
		{
			"buffer":0,
			"byteLength":1560,
			"byteOffset":34512,
			"target":34962
		},
		{
			"buffer":0,
			"byteLength":1560,
			"byteOffset":36072,
			"target":34962
		},
		{
			"buffer":0,
			"byteLength":1040,
			"byteOffset":37632,
			"target":34962
		},
		{
			"buffer":0,
			"byteLength":744,
			"byteOffset":38672,
			"target":34963
		}
	],
	"buffers":[
		{
			"byteLength":39416,
			"uri":"room.bin"
		}
	]
}
